<svg width="60" height="60" viewBox="0 0 60 60" fill="none" xmlns="http://www.w3.org/2000/svg">
<path d="M20.0024 30.0012C20.0024 24.4783 24.4783 20 30.0012 20C35.5241 20 40.0024 24.4783 40.0024 30.0012C40.0024 35.5241 35.5241 40.0024 30.0012 40.0024C24.4783 40.0024 20.0024 35.5241 20.0024 30.0012ZM14.5959 30.0012C14.5959 38.5095 21.4929 45.4065 30.0012 45.4065C38.5095 45.4065 45.4065 38.5095 45.4065 30.0012C45.4065 21.4929 38.5095 14.5959 30.0012 14.5959C21.4929 14.5959 14.5959 21.4929 14.5959 30.0012ZM42.4162 13.9851C42.4159 14.6972 42.6268 15.3933 43.0221 15.9855C43.4175 16.5777 43.9795 17.0394 44.6373 17.3121C45.295 17.5849 46.0188 17.6564 46.7173 17.5178C47.4157 17.3792 48.0573 17.0366 48.561 16.5333C49.0647 16.03 49.4078 15.3886 49.547 14.6903C49.6862 13.992 49.6152 13.2681 49.343 12.6102C49.0707 11.9522 48.6095 11.3898 48.0177 10.9939C47.4258 10.5981 46.7298 10.3867 46.0178 10.3864H46.0163C45.0619 10.3869 44.1467 10.7661 43.4716 11.4409C42.7966 12.1156 42.417 13.0307 42.4162 13.9851ZM17.8807 54.4215C14.9557 54.2883 13.3659 53.801 12.3094 53.3894C10.9087 52.8441 9.90928 52.1946 8.85851 51.1453C7.80775 50.096 7.15733 49.0976 6.61442 47.6969C6.20257 46.6408 5.71535 45.0505 5.58238 42.1255C5.43694 38.9632 5.4079 38.0132 5.4079 30.0014C5.4079 21.9897 5.43934 21.0424 5.58238 17.8774C5.71559 14.9524 6.20641 13.3652 6.61442 12.306C7.15973 10.9053 7.80919 9.90592 8.85851 8.85515C9.90784 7.80439 10.9063 7.15397 12.3094 6.61106C13.3654 6.19921 14.9557 5.71199 17.8807 5.57902C21.0431 5.43358 21.993 5.40454 30.0012 5.40454C38.0094 5.40454 38.9603 5.43598 42.1253 5.57902C45.0503 5.71223 46.6375 6.20305 47.6966 6.61106C49.0973 7.15397 50.0967 7.80583 51.1475 8.85515C52.1983 9.90448 52.8463 10.9053 53.3916 12.306C53.8034 13.3621 54.2907 14.9524 54.4236 17.8774C54.5691 21.0424 54.5981 21.9897 54.5981 30.0014C54.5981 38.0132 54.5691 38.9605 54.4236 42.1255C54.2904 45.0505 53.8008 46.6404 53.3916 47.6969C52.8463 49.0976 52.1968 50.097 51.1475 51.1453C50.0982 52.1937 49.0973 52.8441 47.6966 53.3894C46.6406 53.8013 45.0503 54.2885 42.1253 54.4215C38.9629 54.5669 38.013 54.5959 30.0012 54.5959C21.9894 54.5959 21.0421 54.5669 17.8807 54.4215ZM17.6323 0.181687C14.4385 0.327133 12.2561 0.833553 10.3502 1.57518C8.37634 2.34105 6.70539 3.36853 5.03564 5.03564C3.36589 6.70275 2.34105 8.37634 1.57518 10.3502C0.833553 12.2573 0.327133 14.4385 0.181687 17.6323C0.0338414 20.8312 0 21.8538 0 30.0012C0 38.1486 0.0338414 39.1712 0.181687 42.3701C0.327133 45.5641 0.833553 47.7451 1.57518 49.6522C2.34105 51.6249 3.36613 53.3004 5.03564 54.9668C6.70515 56.6331 8.37634 57.6592 10.3502 58.4272C12.2597 59.1689 14.4385 59.6753 17.6323 59.8207C20.8328 59.9662 21.8538 60.0024 30.0012 60.0024C38.1486 60.0024 39.1712 59.9686 42.3701 59.8207C45.5641 59.6753 47.7451 59.1689 49.6522 58.4272C51.6249 57.6592 53.297 56.6339 54.9668 54.9668C56.6365 53.2997 57.6592 51.6249 58.4272 49.6522C59.1689 47.7451 59.6777 45.5639 59.8207 42.3701C59.9662 39.1688 60 38.1486 60 30.0012C60 21.8538 59.9662 20.8312 59.8207 17.6323C59.6753 14.4383 59.1689 12.2561 58.4272 10.3502C57.6592 8.37753 56.6339 6.70539 54.9668 5.03564C53.2997 3.36589 51.6249 2.34105 49.6546 1.57518C47.7451 0.833553 45.5639 0.324733 42.3725 0.181687C39.1736 0.0362415 38.151 0 30.0036 0C21.8562 0 20.8328 0.0338414 17.6323 0.181687Z" fill="url(#paint0_radial_1_2521)"/>
<path d="M20.0024 30.0012C20.0024 24.4783 24.4783 20 30.0012 20C35.5241 20 40.0024 24.4783 40.0024 30.0012C40.0024 35.5241 35.5241 40.0024 30.0012 40.0024C24.4783 40.0024 20.0024 35.5241 20.0024 30.0012ZM14.5959 30.0012C14.5959 38.5095 21.4929 45.4065 30.0012 45.4065C38.5095 45.4065 45.4065 38.5095 45.4065 30.0012C45.4065 21.4929 38.5095 14.5959 30.0012 14.5959C21.4929 14.5959 14.5959 21.4929 14.5959 30.0012ZM42.4162 13.9851C42.4159 14.6972 42.6268 15.3933 43.0221 15.9855C43.4175 16.5777 43.9795 17.0394 44.6373 17.3121C45.295 17.5849 46.0188 17.6564 46.7173 17.5178C47.4157 17.3792 48.0573 17.0366 48.561 16.5333C49.0647 16.03 49.4078 15.3886 49.547 14.6903C49.6862 13.992 49.6152 13.2681 49.343 12.6102C49.0707 11.9522 48.6095 11.3898 48.0177 10.9939C47.4258 10.5981 46.7298 10.3867 46.0178 10.3864H46.0163C45.0619 10.3869 44.1467 10.7661 43.4716 11.4409C42.7966 12.1156 42.417 13.0307 42.4162 13.9851ZM17.8807 54.4215C14.9557 54.2883 13.3659 53.801 12.3094 53.3894C10.9087 52.8441 9.90928 52.1946 8.85851 51.1453C7.80775 50.096 7.15733 49.0976 6.61442 47.6969C6.20257 46.6408 5.71535 45.0505 5.58238 42.1255C5.43694 38.9632 5.4079 38.0132 5.4079 30.0014C5.4079 21.9897 5.43934 21.0424 5.58238 17.8774C5.71559 14.9524 6.20641 13.3652 6.61442 12.306C7.15973 10.9053 7.80919 9.90592 8.85851 8.85515C9.90784 7.80439 10.9063 7.15397 12.3094 6.61106C13.3654 6.19921 14.9557 5.71199 17.8807 5.57902C21.0431 5.43358 21.993 5.40454 30.0012 5.40454C38.0094 5.40454 38.9603 5.43598 42.1253 5.57902C45.0503 5.71223 46.6375 6.20305 47.6966 6.61106C49.0973 7.15397 50.0967 7.80583 51.1475 8.85515C52.1983 9.90448 52.8463 10.9053 53.3916 12.306C53.8034 13.3621 54.2907 14.9524 54.4236 17.8774C54.5691 21.0424 54.5981 21.9897 54.5981 30.0014C54.5981 38.0132 54.5691 38.9605 54.4236 42.1255C54.2904 45.0505 53.8008 46.6404 53.3916 47.6969C52.8463 49.0976 52.1968 50.097 51.1475 51.1453C50.0982 52.1937 49.0973 52.8441 47.6966 53.3894C46.6406 53.8013 45.0503 54.2885 42.1253 54.4215C38.9629 54.5669 38.013 54.5959 30.0012 54.5959C21.9894 54.5959 21.0421 54.5669 17.8807 54.4215ZM17.6323 0.181687C14.4385 0.327133 12.2561 0.833553 10.3502 1.57518C8.37634 2.34105 6.70539 3.36853 5.03564 5.03564C3.36589 6.70275 2.34105 8.37634 1.57518 10.3502C0.833553 12.2573 0.327133 14.4385 0.181687 17.6323C0.0338414 20.8312 0 21.8538 0 30.0012C0 38.1486 0.0338414 39.1712 0.181687 42.3701C0.327133 45.5641 0.833553 47.7451 1.57518 49.6522C2.34105 51.6249 3.36613 53.3004 5.03564 54.9668C6.70515 56.6331 8.37634 57.6592 10.3502 58.4272C12.2597 59.1689 14.4385 59.6753 17.6323 59.8207C20.8328 59.9662 21.8538 60.0024 30.0012 60.0024C38.1486 60.0024 39.1712 59.9686 42.3701 59.8207C45.5641 59.6753 47.7451 59.1689 49.6522 58.4272C51.6249 57.6592 53.297 56.6339 54.9668 54.9668C56.6365 53.2997 57.6592 51.6249 58.4272 49.6522C59.1689 47.7451 59.6777 45.5639 59.8207 42.3701C59.9662 39.1688 60 38.1486 60 30.0012C60 21.8538 59.9662 20.8312 59.8207 17.6323C59.6753 14.4383 59.1689 12.2561 58.4272 10.3502C57.6592 8.37753 56.6339 6.70539 54.9668 5.03564C53.2997 3.36589 51.6249 2.34105 49.6546 1.57518C47.7451 0.833553 45.5639 0.324733 42.3725 0.181687C39.1736 0.0362415 38.151 0 30.0036 0C21.8562 0 20.8328 0.0338414 17.6323 0.181687Z" fill="url(#paint1_radial_1_2521)"/>
<defs>
<radialGradient id="paint0_radial_1_2521" cx="0" cy="0" r="1" gradientUnits="userSpaceOnUse" gradientTransform="translate(7.97168 60.2859) scale(78.3281 78.3281)">
<stop offset="0.09" stop-color="#FA8F21"/>
<stop offset="0.78" stop-color="#D82D7E"/>
</radialGradient>
<radialGradient id="paint1_radial_1_2521" cx="0" cy="0" r="1" gradientUnits="userSpaceOnUse" gradientTransform="translate(36.3888 62.974) scale(61.7334)">
<stop offset="0.64" stop-color="#8C3AAA" stop-opacity="0"/>
<stop offset="1" stop-color="#8C3AAA"/>
</radialGradient>
</defs>
</svg>
