<svg width="26" height="24" viewBox="0 0 26 24" fill="none" xmlns="http://www.w3.org/2000/svg">
<path d="M3.66667 17V22.3333M5 1V6.33333M6.33333 19.6667H1M7.66667 3.66667H2.33333M14.3333 1L16.6704 6.92583C16.9209 7.56111 17.0463 7.87875 17.2381 8.14659C17.4081 8.384 17.616 8.59188 17.8535 8.76191C18.1212 8.95373 18.4389 9.07907 19.0741 9.3296L25 11.6667L19.0741 14.0037C18.4389 14.2543 18.1212 14.3796 17.8535 14.5715C17.616 14.7415 17.4081 14.9493 17.2381 15.1868C17.0463 15.4545 16.9209 15.7723 16.6704 16.4075L14.3333 22.3333L11.9963 16.4075C11.7457 15.7723 11.6204 15.4545 11.4285 15.1868C11.2585 14.9493 11.0507 14.7415 10.8132 14.5715C10.5455 14.3796 10.2278 14.2543 9.59249 14.0037L3.66667 11.6667L9.59249 9.3296C10.2278 9.07907 10.5455 8.95373 10.8132 8.76191C11.0507 8.59188 11.2585 8.384 11.4285 8.14659C11.6204 7.87875 11.7457 7.56111 11.9963 6.92583L14.3333 1Z" stroke="white" stroke-width="2" stroke-linecap="round" stroke-linejoin="round"/>
</svg>
