<svg width="27" height="21" viewBox="0 0 27 21" fill="none" xmlns="http://www.w3.org/2000/svg">
<path d="M15.6515 14.7964L21.3201 8.9688L25.5 12.9792M6.78645 19.6667L13.4584 12.9688L21.4636 19.6667M10.7917 7.63541C10.7917 9.10813 9.59776 10.3021 8.125 10.3021C6.65224 10.3021 5.45833 9.10813 5.45833 7.63541C5.45833 6.16265 6.65224 4.96875 8.125 4.96875C9.59776 4.96875 10.7917 6.16265 10.7917 7.63541ZM13.5836 2.41699L13.4164 2.24968C12.9552 1.78847 12.7245 1.55787 12.4555 1.39296C12.2168 1.24675 11.9567 1.139 11.6847 1.07368C11.3777 1 11.0516 1 10.3994 1H5.76667C4.2732 1 3.52645 1 2.95603 1.29065C2.45425 1.54631 2.04631 1.95425 1.79065 2.45603C1.5 3.02645 1.5 3.77319 1.5 5.26667V15.4C1.5 16.8935 1.5 17.6403 1.79065 18.2107C2.04631 18.7124 2.45425 19.1204 2.95603 19.376C3.52645 19.6667 4.27319 19.6667 5.76667 19.6667H21.2333C22.7268 19.6667 23.4736 19.6667 24.044 19.376C24.5457 19.1204 24.9537 18.7124 25.2093 18.2107C25.5 17.6403 25.5 16.8935 25.5 15.4V7.93333C25.5 6.43987 25.5 5.69312 25.2093 5.12269C24.9537 4.62092 24.5457 4.21297 24.044 3.95732C23.4736 3.66667 22.7268 3.66667 21.2333 3.66667H16.6007C15.9484 3.66667 15.6223 3.66667 15.3153 3.59299C15.0433 3.52767 14.7832 3.41992 14.5445 3.27371C14.2755 3.1088 14.0448 2.8782 13.5836 2.41699Z" stroke="white" stroke-width="2" stroke-linecap="round" stroke-linejoin="round"/>
</svg>
