<svg width="80" height="45" viewBox="0 0 80 45" fill="none" xmlns="http://www.w3.org/2000/svg">
<path d="M30.6667 17V22.3333M32 1V6.33333M33.3333 19.6667H28M34.6667 3.66667H29.3333M41.3333 1L43.6704 6.92583C43.9209 7.56111 44.0463 7.87875 44.2381 8.14659C44.4081 8.384 44.616 8.59188 44.8535 8.76191C45.1212 8.95373 45.4389 9.07907 46.0741 9.3296L52 11.6667L46.0741 14.0037C45.4389 14.2543 45.1212 14.3796 44.8535 14.5715C44.616 14.7415 44.4081 14.9493 44.2381 15.1868C44.0463 15.4545 43.9209 15.7723 43.6704 16.4075L41.3333 22.3333L38.9963 16.4075C38.7457 15.7723 38.6204 15.4545 38.4285 15.1868C38.2585 14.9493 38.0507 14.7415 37.8132 14.5715C37.5455 14.3796 37.2278 14.2543 36.5925 14.0037L30.6667 11.6667L36.5925 9.3296C37.2278 9.07907 37.5455 8.95373 37.8132 8.76191C38.0507 8.59188 38.2585 8.384 38.4285 8.14659C38.6204 7.87875 38.7457 7.56111 38.9963 6.92583L41.3333 1Z" stroke="white" stroke-width="2" stroke-linecap="round" stroke-linejoin="round"/>
<path d="M27.516 32.8573V35.6533H30.564V36.5533H27.516V39.4333H30.924V40.3333H26.424V31.9573H30.924V32.8573H27.516ZM36.0083 40.3333L34.4483 37.8853L32.9483 40.3333H31.8083L33.9323 37.0693L31.8083 33.7573H33.0443L34.6043 36.1933L36.0923 33.7573H37.2323L35.1203 37.0093L37.2443 40.3333H36.0083ZM39.6505 34.6573V38.5333C39.6505 38.8533 39.7185 39.0813 39.8545 39.2173C39.9905 39.3453 40.2265 39.4093 40.5625 39.4093H41.3665V40.3333H40.3825C39.7745 40.3333 39.3185 40.1933 39.0145 39.9133C38.7105 39.6333 38.5585 39.1733 38.5585 38.5333V34.6573H37.7065V33.7573H38.5585V32.1013H39.6505V33.7573H41.3665V34.6573H39.6505ZM43.7816 34.8253C43.9736 34.4493 44.2456 34.1573 44.5976 33.9493C44.9576 33.7413 45.3936 33.6373 45.9056 33.6373V34.7653H45.6176C44.3936 34.7653 43.7816 35.4293 43.7816 36.7573V40.3333H42.6896V33.7573H43.7816V34.8253ZM46.7582 37.0213C46.7582 36.3493 46.8942 35.7613 47.1662 35.2573C47.4382 34.7453 47.8102 34.3493 48.2822 34.0693C48.7622 33.7893 49.2942 33.6493 49.8782 33.6493C50.4542 33.6493 50.9542 33.7733 51.3782 34.0213C51.8022 34.2693 52.1182 34.5813 52.3262 34.9573V33.7573H53.4302V40.3333H52.3262V39.1093C52.1102 39.4933 51.7862 39.8133 51.3542 40.0693C50.9302 40.3173 50.4342 40.4413 49.8662 40.4413C49.2822 40.4413 48.7542 40.2973 48.2822 40.0093C47.8102 39.7213 47.4382 39.3173 47.1662 38.7973C46.8942 38.2773 46.7582 37.6853 46.7582 37.0213ZM52.3262 37.0333C52.3262 36.5373 52.2262 36.1053 52.0262 35.7373C51.8262 35.3693 51.5542 35.0893 51.2102 34.8973C50.8742 34.6973 50.5022 34.5973 50.0942 34.5973C49.6862 34.5973 49.3142 34.6933 48.9782 34.8853C48.6422 35.0773 48.3742 35.3573 48.1742 35.7253C47.9742 36.0933 47.8742 36.5253 47.8742 37.0213C47.8742 37.5253 47.9742 37.9653 48.1742 38.3413C48.3742 38.7093 48.6422 38.9933 48.9782 39.1933C49.3142 39.3853 49.6862 39.4813 50.0942 39.4813C50.5022 39.4813 50.8742 39.3853 51.2102 39.1933C51.5542 38.9933 51.8262 38.7093 52.0262 38.3413C52.2262 37.9653 52.3262 37.5293 52.3262 37.0333Z" fill="white"/>
</svg>
