<svg width="81" height="42" viewBox="0 0 81 42" fill="none" xmlns="http://www.w3.org/2000/svg">
<path d="M42.6515 14.7964L48.3201 8.9688L52.5 12.9792M33.7865 19.6667L40.4584 12.9688L48.4636 19.6667M37.7917 7.63541C37.7917 9.10813 36.5978 10.3021 35.125 10.3021C33.6522 10.3021 32.4583 9.10813 32.4583 7.63541C32.4583 6.16265 33.6522 4.96875 35.125 4.96875C36.5978 4.96875 37.7917 6.16265 37.7917 7.63541ZM40.5836 2.41699L40.4164 2.24968C39.9552 1.78847 39.7245 1.55787 39.4555 1.39296C39.2168 1.24675 38.9567 1.139 38.6847 1.07368C38.3777 1 38.0516 1 37.3994 1H32.7667C31.2732 1 30.5265 1 29.956 1.29065C29.4543 1.54631 29.0463 1.95425 28.7907 2.45603C28.5 3.02645 28.5 3.77319 28.5 5.26667V15.4C28.5 16.8935 28.5 17.6403 28.7907 18.2107C29.0463 18.7124 29.4543 19.1204 29.956 19.376C30.5265 19.6667 31.2732 19.6667 32.7667 19.6667H48.2333C49.7268 19.6667 50.4736 19.6667 51.044 19.376C51.5457 19.1204 51.9537 18.7124 52.2093 18.2107C52.5 17.6403 52.5 16.8935 52.5 15.4V7.93333C52.5 6.43987 52.5 5.69312 52.2093 5.12269C51.9537 4.62092 51.5457 4.21297 51.044 3.95732C50.4736 3.66667 49.7268 3.66667 48.2333 3.66667H43.6007C42.9484 3.66667 42.6223 3.66667 42.3153 3.59299C42.0433 3.52767 41.7832 3.41992 41.5445 3.27371C41.2755 3.1088 41.0448 2.8782 40.5836 2.41699Z" stroke="white" stroke-width="2" stroke-linecap="round" stroke-linejoin="round"/>
<path d="M26.26 31.7267C26.028 31.2387 25.692 30.8627 25.252 30.5987C24.812 30.3267 24.3 30.1907 23.716 30.1907C23.132 30.1907 22.604 30.3267 22.132 30.5987C21.668 30.8627 21.3 31.2467 21.028 31.7507C20.764 32.2467 20.632 32.8227 20.632 33.4787C20.632 34.1347 20.764 34.7107 21.028 35.2067C21.3 35.7027 21.668 36.0867 22.132 36.3587C22.604 36.6227 23.132 36.7547 23.716 36.7547C24.532 36.7547 25.204 36.5107 25.732 36.0227C26.26 35.5347 26.568 34.8747 26.656 34.0427H23.32V33.1547H27.82V33.9947C27.756 34.6827 27.54 35.3147 27.172 35.8907C26.804 36.4587 26.32 36.9107 25.72 37.2467C25.12 37.5747 24.452 37.7387 23.716 37.7387C22.94 37.7387 22.232 37.5587 21.592 37.1987C20.952 36.8307 20.444 36.3227 20.068 35.6747C19.7 35.0267 19.516 34.2947 19.516 33.4787C19.516 32.6627 19.7 31.9307 20.068 31.2827C20.444 30.6267 20.952 30.1187 21.592 29.7587C22.232 29.3907 22.94 29.2067 23.716 29.2067C24.604 29.2067 25.388 29.4267 26.068 29.8667C26.756 30.3067 27.256 30.9267 27.568 31.7267H26.26ZM28.8558 34.3547C28.8558 33.6827 28.9918 33.0947 29.2638 32.5907C29.5358 32.0787 29.9078 31.6827 30.3798 31.4027C30.8598 31.1227 31.3918 30.9827 31.9758 30.9827C32.5518 30.9827 33.0518 31.1067 33.4758 31.3547C33.8998 31.6027 34.2158 31.9147 34.4238 32.2907V31.0907H35.5278V37.6667H34.4238V36.4427C34.2078 36.8267 33.8838 37.1467 33.4518 37.4027C33.0278 37.6507 32.5318 37.7747 31.9638 37.7747C31.3798 37.7747 30.8518 37.6307 30.3798 37.3427C29.9078 37.0547 29.5358 36.6507 29.2638 36.1307C28.9918 35.6107 28.8558 35.0187 28.8558 34.3547ZM34.4238 34.3667C34.4238 33.8707 34.3238 33.4387 34.1238 33.0707C33.9238 32.7027 33.6518 32.4227 33.3078 32.2307C32.9718 32.0307 32.5998 31.9307 32.1918 31.9307C31.7838 31.9307 31.4118 32.0267 31.0758 32.2187C30.7398 32.4107 30.4718 32.6907 30.2718 33.0587C30.0718 33.4267 29.9718 33.8587 29.9718 34.3547C29.9718 34.8587 30.0718 35.2987 30.2718 35.6747C30.4718 36.0427 30.7398 36.3267 31.0758 36.5267C31.4118 36.7187 31.7838 36.8147 32.1918 36.8147C32.5998 36.8147 32.9718 36.7187 33.3078 36.5267C33.6518 36.3267 33.9238 36.0427 34.1238 35.6747C34.3238 35.2987 34.4238 34.8627 34.4238 34.3667ZM38.4652 28.7867V37.6667H37.3732V28.7867H38.4652ZM41.4183 28.7867V37.6667H40.3263V28.7867H41.4183ZM49.2795 34.1267C49.2795 34.3347 49.2675 34.5547 49.2435 34.7867H43.9875C44.0275 35.4347 44.2475 35.9427 44.6475 36.3107C45.0555 36.6707 45.5475 36.8507 46.1235 36.8507C46.5955 36.8507 46.9875 36.7427 47.2995 36.5267C47.6195 36.3027 47.8435 36.0067 47.9715 35.6387H49.1475C48.9715 36.2707 48.6195 36.7867 48.0915 37.1867C47.5635 37.5787 46.9075 37.7747 46.1235 37.7747C45.4995 37.7747 44.9395 37.6347 44.4435 37.3547C43.9555 37.0747 43.5715 36.6787 43.2915 36.1667C43.0115 35.6467 42.8715 35.0467 42.8715 34.3667C42.8715 33.6867 43.0075 33.0907 43.2795 32.5787C43.5515 32.0667 43.9315 31.6747 44.4195 31.4027C44.9155 31.1227 45.4835 30.9827 46.1235 30.9827C46.7475 30.9827 47.2995 31.1187 47.7795 31.3907C48.2595 31.6627 48.6275 32.0387 48.8835 32.5187C49.1475 32.9907 49.2795 33.5267 49.2795 34.1267ZM48.1515 33.8987C48.1515 33.4827 48.0595 33.1267 47.8755 32.8307C47.6915 32.5267 47.4395 32.2987 47.1195 32.1467C46.8075 31.9867 46.4595 31.9067 46.0755 31.9067C45.5235 31.9067 45.0515 32.0827 44.6595 32.4347C44.2755 32.7867 44.0555 33.2747 43.9995 33.8987H48.1515ZM51.8129 32.1587C52.0049 31.7827 52.2769 31.4907 52.6289 31.2827C52.9889 31.0747 53.4249 30.9707 53.9369 30.9707V32.0987H53.6489C52.4249 32.0987 51.8129 32.7627 51.8129 34.0907V37.6667H50.7209V31.0907H51.8129V32.1587ZM60.8614 31.0907L56.9014 40.7627H55.7734L57.0694 37.5947L54.4174 31.0907H55.6294L57.6934 36.4187L59.7334 31.0907H60.8614Z" fill="white"/>
</svg>
