<svg width="81" height="41" viewBox="0 0 81 41" fill="none" xmlns="http://www.w3.org/2000/svg">
<path d="M35.1667 1.66667L52.5 1.66771M35.1667 9.66667L52.5 9.66773M35.1667 17.6667L52.5 17.6676M28.5 2.33333H29.8333V1H28.5V2.33333ZM28.5 10.3333H29.8333V9H28.5V10.3333ZM28.5 18.3333H29.8333V17H28.5V18.3333Z" stroke="white" stroke-width="2" stroke-linecap="round" stroke-linejoin="round"/>
<path d="M10.124 27.9933C11.012 27.9933 11.788 28.1653 12.452 28.5093C13.124 28.8453 13.64 29.3333 14 29.9733C14.368 30.6053 14.552 31.3453 14.552 32.1933C14.552 33.0413 14.368 33.7773 14 34.4013C13.64 35.0253 13.124 35.5053 12.452 35.8413C11.788 36.1693 11.012 36.3333 10.124 36.3333H7.4V27.9933H10.124ZM10.124 35.2173C11.1 35.2173 11.848 34.9533 12.368 34.4253C12.888 33.8973 13.148 33.1533 13.148 32.1933C13.148 31.2253 12.888 30.4693 12.368 29.9253C11.848 29.3813 11.1 29.1093 10.124 29.1093H8.768V35.2173H10.124ZM15.4518 32.9973C15.4518 32.3333 15.5878 31.7453 15.8598 31.2333C16.1398 30.7213 16.5158 30.3253 16.9878 30.0453C17.4678 29.7573 17.9958 29.6133 18.5718 29.6133C19.0918 29.6133 19.5438 29.7173 19.9278 29.9253C20.3198 30.1253 20.6318 30.3773 20.8638 30.6813V29.7213H22.2438V36.3333H20.8638V35.3493C20.6318 35.6613 20.3158 35.9213 19.9158 36.1293C19.5158 36.3373 19.0598 36.4413 18.5478 36.4413C17.9798 36.4413 17.4598 36.2973 16.9878 36.0093C16.5158 35.7133 16.1398 35.3053 15.8598 34.7853C15.5878 34.2573 15.4518 33.6613 15.4518 32.9973ZM20.8638 33.0213C20.8638 32.5653 20.7678 32.1693 20.5758 31.8333C20.3918 31.4973 20.1478 31.2413 19.8438 31.0653C19.5398 30.8893 19.2118 30.8013 18.8598 30.8013C18.5078 30.8013 18.1798 30.8893 17.8758 31.0653C17.5718 31.2333 17.3238 31.4853 17.1318 31.8213C16.9478 32.1493 16.8558 32.5413 16.8558 32.9973C16.8558 33.4533 16.9478 33.8533 17.1318 34.1973C17.3238 34.5413 17.5718 34.8053 17.8758 34.9893C18.1878 35.1653 18.5158 35.2533 18.8598 35.2533C19.2118 35.2533 19.5398 35.1653 19.8438 34.9893C20.1478 34.8133 20.3918 34.5573 20.5758 34.2213C20.7678 33.8773 20.8638 33.4773 20.8638 33.0213ZM26.4406 36.4413C25.9206 36.4413 25.4526 36.3493 25.0366 36.1653C24.6286 35.9733 24.3046 35.7173 24.0646 35.3973C23.8246 35.0693 23.6966 34.7053 23.6806 34.3053H25.0966C25.1206 34.5853 25.2526 34.8213 25.4926 35.0133C25.7406 35.1973 26.0486 35.2893 26.4166 35.2893C26.8006 35.2893 27.0966 35.2173 27.3046 35.0733C27.5206 34.9213 27.6286 34.7293 27.6286 34.4973C27.6286 34.2493 27.5086 34.0653 27.2686 33.9453C27.0366 33.8253 26.6646 33.6933 26.1526 33.5493C25.6566 33.4133 25.2526 33.2813 24.9406 33.1533C24.6286 33.0253 24.3566 32.8293 24.1246 32.5653C23.9006 32.3013 23.7886 31.9533 23.7886 31.5213C23.7886 31.1693 23.8926 30.8493 24.1006 30.5613C24.3086 30.2653 24.6046 30.0333 24.9886 29.8653C25.3806 29.6973 25.8286 29.6133 26.3326 29.6133C27.0846 29.6133 27.6886 29.8053 28.1446 30.1893C28.6086 30.5653 28.8566 31.0813 28.8886 31.7373H27.5206C27.4966 31.4413 27.3766 31.2053 27.1606 31.0293C26.9446 30.8533 26.6526 30.7653 26.2846 30.7653C25.9246 30.7653 25.6486 30.8333 25.4566 30.9693C25.2646 31.1053 25.1686 31.2853 25.1686 31.5093C25.1686 31.6853 25.2326 31.8333 25.3606 31.9533C25.4886 32.0733 25.6446 32.1693 25.8286 32.2413C26.0126 32.3053 26.2846 32.3893 26.6446 32.4933C27.1246 32.6213 27.5166 32.7533 27.8206 32.8893C28.1326 33.0173 28.4006 33.2093 28.6246 33.4653C28.8486 33.7213 28.9646 34.0613 28.9726 34.4853C28.9726 34.8613 28.8686 35.1973 28.6606 35.4933C28.4526 35.7893 28.1566 36.0213 27.7726 36.1893C27.3966 36.3573 26.9526 36.4413 26.4406 36.4413ZM33.8708 29.6133C34.3748 29.6133 34.8228 29.7213 35.2148 29.9373C35.6148 30.1533 35.9268 30.4733 36.1508 30.8973C36.3828 31.3213 36.4988 31.8333 36.4988 32.4333V36.3333H35.1428V32.6373C35.1428 32.0453 34.9948 31.5933 34.6988 31.2813C34.4028 30.9613 33.9988 30.8013 33.4868 30.8013C32.9748 30.8013 32.5668 30.9613 32.2628 31.2813C31.9668 31.5933 31.8188 32.0453 31.8188 32.6373V36.3333H30.4508V27.4533H31.8188V30.4893C32.0508 30.2093 32.3428 29.9933 32.6948 29.8413C33.0548 29.6893 33.4468 29.6133 33.8708 29.6133ZM39.6118 30.7053C39.8438 30.3853 40.1598 30.1253 40.5598 29.9253C40.9678 29.7173 41.4198 29.6133 41.9158 29.6133C42.4998 29.6133 43.0278 29.7533 43.4998 30.0333C43.9718 30.3133 44.3438 30.7133 44.6158 31.2333C44.8878 31.7453 45.0238 32.3333 45.0238 32.9973C45.0238 33.6613 44.8878 34.2573 44.6158 34.7853C44.3438 35.3053 43.9678 35.7133 43.4878 36.0093C43.0158 36.2973 42.4918 36.4413 41.9158 36.4413C41.4038 36.4413 40.9478 36.3413 40.5478 36.1413C40.1558 35.9413 39.8438 35.6853 39.6118 35.3733V36.3333H38.2438V27.4533H39.6118V30.7053ZM43.6318 32.9973C43.6318 32.5413 43.5358 32.1493 43.3438 31.8213C43.1598 31.4853 42.9118 31.2333 42.5998 31.0653C42.2958 30.8893 41.9678 30.8013 41.6158 30.8013C41.2718 30.8013 40.9438 30.8893 40.6318 31.0653C40.3278 31.2413 40.0798 31.4973 39.8878 31.8333C39.7038 32.1693 39.6118 32.5653 39.6118 33.0213C39.6118 33.4773 39.7038 33.8773 39.8878 34.2213C40.0798 34.5573 40.3278 34.8133 40.6318 34.9893C40.9438 35.1653 41.2718 35.2533 41.6158 35.2533C41.9678 35.2533 42.2958 35.1653 42.5998 34.9893C42.9118 34.8053 43.1598 34.5413 43.3438 34.1973C43.5358 33.8533 43.6318 33.4533 43.6318 32.9973ZM49.2446 36.4413C48.6206 36.4413 48.0566 36.3013 47.5526 36.0213C47.0486 35.7333 46.6526 35.3333 46.3646 34.8213C46.0766 34.3013 45.9326 33.7013 45.9326 33.0213C45.9326 32.3493 46.0806 31.7533 46.3766 31.2333C46.6726 30.7133 47.0766 30.3133 47.5886 30.0333C48.1006 29.7533 48.6726 29.6133 49.3046 29.6133C49.9366 29.6133 50.5086 29.7533 51.0206 30.0333C51.5326 30.3133 51.9366 30.7133 52.2326 31.2333C52.5286 31.7533 52.6766 32.3493 52.6766 33.0213C52.6766 33.6933 52.5246 34.2893 52.2206 34.8093C51.9166 35.3293 51.5006 35.7333 50.9726 36.0213C50.4526 36.3013 49.8766 36.4413 49.2446 36.4413ZM49.2446 35.2533C49.5966 35.2533 49.9246 35.1693 50.2286 35.0013C50.5406 34.8333 50.7926 34.5813 50.9846 34.2453C51.1766 33.9093 51.2726 33.5013 51.2726 33.0213C51.2726 32.5413 51.1806 32.1373 50.9966 31.8093C50.8126 31.4733 50.5686 31.2213 50.2646 31.0533C49.9606 30.8853 49.6326 30.8013 49.2806 30.8013C48.9286 30.8013 48.6006 30.8853 48.2966 31.0533C48.0006 31.2213 47.7646 31.4733 47.5886 31.8093C47.4126 32.1373 47.3246 32.5413 47.3246 33.0213C47.3246 33.7333 47.5046 34.2853 47.8646 34.6773C48.2326 35.0613 48.6926 35.2533 49.2446 35.2533ZM53.5729 32.9973C53.5729 32.3333 53.7089 31.7453 53.9809 31.2333C54.2609 30.7213 54.6369 30.3253 55.1089 30.0453C55.5889 29.7573 56.1169 29.6133 56.6929 29.6133C57.2129 29.6133 57.6649 29.7173 58.0489 29.9253C58.4409 30.1253 58.7529 30.3773 58.9849 30.6813V29.7213H60.3649V36.3333H58.9849V35.3493C58.7529 35.6613 58.4369 35.9213 58.0369 36.1293C57.6369 36.3373 57.1809 36.4413 56.6689 36.4413C56.1009 36.4413 55.5809 36.2973 55.1089 36.0093C54.6369 35.7133 54.2609 35.3053 53.9809 34.7853C53.7089 34.2573 53.5729 33.6613 53.5729 32.9973ZM58.9849 33.0213C58.9849 32.5653 58.8889 32.1693 58.6969 31.8333C58.5129 31.4973 58.2689 31.2413 57.9649 31.0653C57.6609 30.8893 57.3329 30.8013 56.9809 30.8013C56.6289 30.8013 56.3009 30.8893 55.9969 31.0653C55.6929 31.2333 55.4449 31.4853 55.2529 31.8213C55.0689 32.1493 54.9769 32.5413 54.9769 32.9973C54.9769 33.4533 55.0689 33.8533 55.2529 34.1973C55.4449 34.5413 55.6929 34.8053 55.9969 34.9893C56.3089 35.1653 56.6369 35.2533 56.9809 35.2533C57.3329 35.2533 57.6609 35.1653 57.9649 34.9893C58.2689 34.8133 58.5129 34.5573 58.6969 34.2213C58.8889 33.8773 58.9849 33.4773 58.9849 33.0213ZM63.5297 30.6813C63.7297 30.3453 63.9937 30.0853 64.3217 29.9013C64.6577 29.7093 65.0537 29.6133 65.5097 29.6133V31.0293H65.1617C64.6257 31.0293 64.2177 31.1653 63.9377 31.4373C63.6657 31.7093 63.5297 32.1813 63.5297 32.8533V36.3333H62.1617V29.7213H63.5297V30.6813ZM66.3112 32.9973C66.3112 32.3333 66.4472 31.7453 66.7192 31.2333C66.9992 30.7213 67.3752 30.3253 67.8472 30.0453C68.3272 29.7573 68.8592 29.6133 69.4432 29.6133C69.8752 29.6133 70.2992 29.7093 70.7152 29.9013C71.1392 30.0853 71.4752 30.3333 71.7232 30.6453V27.4533H73.1032V36.3333H71.7232V35.3373C71.4992 35.6573 71.1872 35.9213 70.7872 36.1293C70.3952 36.3373 69.9432 36.4413 69.4312 36.4413C68.8552 36.4413 68.3272 36.2973 67.8472 36.0093C67.3752 35.7133 66.9992 35.3053 66.7192 34.7853C66.4472 34.2573 66.3112 33.6613 66.3112 32.9973ZM71.7232 33.0213C71.7232 32.5653 71.6272 32.1693 71.4352 31.8333C71.2512 31.4973 71.0072 31.2413 70.7032 31.0653C70.3992 30.8893 70.0712 30.8013 69.7192 30.8013C69.3672 30.8013 69.0392 30.8893 68.7352 31.0653C68.4312 31.2333 68.1832 31.4853 67.9912 31.8213C67.8072 32.1493 67.7152 32.5413 67.7152 32.9973C67.7152 33.4533 67.8072 33.8533 67.9912 34.1973C68.1832 34.5413 68.4312 34.8053 68.7352 34.9893C69.0472 35.1653 69.3752 35.2533 69.7192 35.2533C70.0712 35.2533 70.3992 35.1653 70.7032 34.9893C71.0072 34.8133 71.2512 34.5573 71.4352 34.2213C71.6272 33.8773 71.7232 33.4773 71.7232 33.0213Z" fill="white"/>
</svg>
