<svg width="60" height="51" viewBox="0 0 60 51" fill="none" xmlns="http://www.w3.org/2000/svg">
<path d="M35.3409 33.6483C36.2196 34.527 36.2196 35.9517 35.3409 36.8304L21.841 50.3304C20.9623 51.2091 19.5377 51.2091 18.659 50.3304C17.7803 49.4517 17.7803 48.027 18.659 47.1483L32.1591 33.6483C33.0378 32.7696 34.4622 32.7696 35.3409 33.6483ZM25.5648 36L19.5647 42H3C1.34316 42 0 40.6569 0 39C0 37.4616 1.15812 36.1935 2.65014 36.0201L3 36H25.5648ZM43.5 9C44.6364 9 45.5943 9.84729 45.7332 10.9751L46.1502 14.3639C46.6968 18.8046 50.1954 22.3032 54.636 22.8498L58.0248 23.2668C59.1528 23.4057 60 24.3636 60 25.5C60 26.6364 59.1528 27.5943 58.0248 27.7332L54.636 28.1502C50.1954 28.6968 46.6968 32.1954 46.1502 36.636L45.7332 40.0248C45.5943 41.1528 44.6364 42 43.5 42C42.3636 42 41.4057 41.1528 41.2668 40.0248L40.8498 36.636C40.3032 32.1954 36.8046 28.6968 32.364 28.1502L28.9752 27.7332C27.8472 27.5943 27 26.6364 27 25.5C27 24.3636 27.8472 23.4057 28.9752 23.2668L32.364 22.8498C36.8046 22.3032 40.3032 18.8046 40.8498 14.3639L41.2668 10.9751C41.4057 9.84729 42.3636 9 43.5 9ZM24.2178 24C24.0759 24.4764 24 24.9804 24 25.5C24 27.2361 24.8478 28.7939 26.1717 29.7535L26.5443 30H3C1.34316 30 0 28.6569 0 27C0 25.5799 0.9868 24.3902 2.31213 24.0792L2.65014 24.0201L3 24H24.2178ZM33 12C34.6569 12 36 13.3432 36 15C36 16.5384 34.842 17.8065 33.3498 17.9799L33 18H3C1.34316 18 0 16.6569 0 15C0 13.4615 1.15812 12.1935 2.65014 12.0202L3 12H33ZM57 0C58.6569 0 60 1.34316 60 3C60 4.42017 59.0133 5.60985 57.6878 5.92076L57.3498 5.97981L57 6H3C1.34316 6 0 4.65684 0 3C0 1.57983 0.9868 0.39015 2.31213 0.079236L2.65014 0.0201902L3 0H57Z" fill="#212121"/>
</svg>
